<?xml version="1.0" encoding="UTF-8" standalone="no"?>
<svg width="182px" height="30px" viewBox="0 0 182 30" version="1.1" xmlns="http://www.w3.org/2000/svg" xmlns:xlink="http://www.w3.org/1999/xlink">
    <!-- Generator: Sketch 40.1 (33804) - http://www.bohemiancoding.com/sketch -->
    <title>logo-midtrans-color copy</title>
    <desc>Created with Sketch.</desc>
    <defs>
        <polygon id="path-1" points="0 0.904375 0 19.234375 3.96320342 19.234375 3.96320342 0.904375 2.54806076e-20 0.904375"></polygon>
    </defs>
    <g id="Midtrans" stroke="none" stroke-width="1" fill="none" fill-rule="evenodd">
        <g id="2-About" transform="translate(-135.000000, -17.000000)">
            <g id="header">
                <g id="logo-midtrans-color-copy" transform="translate(135.000000, 17.000000)">
                    <g id="Group-3" transform="translate(0.000000, 4.880875)">
                        <mask id="mask-2" fill="white">
                            <use xlink:href="#path-1"></use>
                        </mask>
                        <g id="Clip-2"></g>
                    </g>
                    <path d="M1.98153904,24.11525 C0.887299315,24.11525 -0.000125342466,23.23025 -0.000125342466,22.139 L-0.000125342466,7.7615 C-0.000125342466,6.67025 0.887299315,5.78525 1.98153904,5.78525 C3.07577877,5.78525 3.96320342,6.67025 3.96320342,7.7615 L3.96320342,22.139 C3.96320342,23.23025 3.07577877,24.11525 1.98153904,24.11525" id="Fill-1" fill="#89C7E8"></path>
                    <path d="M25.7607596,24.11525 C24.6665199,24.11525 23.7790952,23.23025 23.7790952,22.139 L23.7790952,7.77275 C23.7790952,6.6815 24.6665199,5.7965 25.7607596,5.7965 C26.8549993,5.7965 27.742424,6.6815 27.742424,7.77275 L27.742424,22.139 C27.742424,23.23025 26.8549993,24.11525 25.7607596,24.11525" id="Fill-4" fill="#0BADDC"></path>
                    <path d="M13.8711493,29.880875 C12.7769096,29.880875 11.8894849,28.995875 11.8894849,27.904625 L11.8894849,2.007125 C11.8894849,0.915875 12.7769096,0.030875 13.8711493,0.030875 C14.965389,0.030875 15.8528137,0.915875 15.8528137,2.007125 L15.8528137,27.904625 C15.8528137,28.995875 14.965389,29.880875 13.8711493,29.880875" id="Fill-6" fill="#307FC2"></path>
                    <path d="M168.783282,21.84125 C168.545131,21.67125 168.30698,21.33125 168.30698,20.88875 C168.30698,20.2775 168.818377,19.7675 169.465145,19.7675 C169.703295,19.7675 169.942699,19.835 170.113165,19.9725 C171.918097,21.195 173.79322,21.84125 175.700932,21.84125 C177.814206,21.84125 179.348398,20.75375 179.348398,19.05375 L179.348398,18.98625 C179.348398,17.21875 177.27022,16.53875 174.952638,15.89375 C172.191343,15.11125 169.124213,14.16 169.124213,10.9325 L169.124213,10.86375 C169.124213,7.83875 171.646103,5.8325 175.12185,5.8325 C176.996973,5.8325 179.042562,6.41125 180.744713,7.32875 C181.086898,7.53375 181.392734,7.90625 181.392734,8.41625 C181.392734,9.02875 180.881336,9.53875 180.234569,9.53875 C179.995165,9.53875 179.790857,9.47 179.655487,9.4025 C178.155138,8.5525 176.554514,8.0425 175.054165,8.0425 C172.974734,8.0425 171.646103,9.13 171.646103,10.5925 L171.646103,10.66 C171.646103,12.325 173.827062,12.97125 176.178487,13.68375 C178.904686,14.5 181.835192,15.55375 181.835192,18.715 L181.835192,18.78125 C181.835192,22.11375 179.076405,24.05 175.565562,24.05 C173.24798,24.05 170.692247,23.2 168.783282,21.84125" id="Fill-12" fill="#929497"></path>
                    <path d="M164.523142,13.1615 C164.523142,9.20775 161.046142,5.76525 156.85469,5.76525 C152.614354,5.76525 149.17621,9.194 149.17621,13.42275 L149.17621,22.479 C149.17621,23.26025 149.781614,23.86275 150.563751,23.86275 C151.348395,23.86275 151.91745,23.26025 151.91745,22.479 L151.916197,18.4115 L151.916197,13.16025 C151.916197,10.444 154.124731,8.2415 156.848423,8.2415 C159.573368,8.2415 161.781902,10.444 161.781902,13.16025 L161.781902,18.42025 L161.781902,22.479 C161.781902,23.26025 162.386053,23.86275 163.134347,23.86275 C163.917738,23.86275 164.523142,23.26025 164.523142,22.479 C164.523142,22.479 164.54821,14.01275 164.523142,13.1615" id="Fill-14" fill="#929497"></path>
                    <path d="M135.94882,21.7345 C133.562299,21.7345 131.680909,20.7195 131.680909,18.51075 L131.680909,18.442 C131.680909,16.23325 133.520936,14.80575 136.826217,14.80575 C138.973334,14.80575 142.004114,15.492 142.005368,15.55325 L142.005368,15.557 C142.005368,18.77825 138.988375,21.7345 135.94882,21.7345 L135.94882,21.7345 Z M144.493416,12.97075 L144.488402,12.97075 C144.248998,9.1995 140.882299,5.9995 136.842512,5.9995 L135.666799,5.9995 C134.981176,5.9995 134.425909,6.55325 134.425909,7.237 C134.425909,7.92075 134.981176,8.47575 135.666799,8.47575 L136.836245,8.47575 C139.56119,8.47575 141.972779,10.67825 141.972779,13.3945 L141.972779,13.61575 C140.404745,13.1745 138.802868,12.86825 136.554224,12.86825 C132.089525,12.86825 129.022395,14.8395 129.022395,18.5445 L129.022395,18.612 C129.022395,22.21575 132.207347,24.0845 135.478786,24.0845 C138.449402,24.0845 140.793306,22.56575 142.005368,20.6095 L142.005368,22.62325 C142.005368,23.30825 142.563142,23.86325 143.250018,23.86325 C143.936895,23.86325 144.494669,23.30825 144.494669,22.62325 L144.493416,12.97075 Z" id="Fill-16" fill="#929497"></path>
                    <path d="M128.52654,7.234 C128.52654,6.55025 127.97002,5.99525 127.284397,5.99525 L126.437082,5.99525 L126.437082,5.99525 L126.435828,5.99525 C122.195492,5.99525 118.757349,9.424 118.757349,13.6515 L118.757349,22.479 C118.757349,23.26025 119.362753,23.86275 120.14489,23.86275 C120.929534,23.86275 121.498588,23.26025 121.498588,22.479 L121.497335,18.4115 L121.497335,13.39025 C121.497335,10.674 123.705869,8.4715 126.429561,8.4715 L126.437082,8.4715 L126.437082,8.47275 L127.284397,8.47275 C127.97002,8.47275 128.52654,7.91775 128.52654,7.234" id="Fill-18" fill="#929497"></path>
                    <path d="M114.401823,7.170875 L114.401823,7.170875 C114.401823,6.532125 113.882905,6.014625 113.242405,6.014625 L108.642337,6.014625 L108.642337,1.402125 C108.642337,0.677125 108.049467,0.010875 107.323734,0.005875 C106.567919,-0.000375 106.017666,0.613375 106.017666,1.330875 L106.017666,19.054625 C106.017666,22.622125 108.163529,24.015875 110.992508,24.015875 C112.015303,24.015875 112.833789,23.845875 113.583337,23.540875 C114.025796,23.370875 114.332885,22.997125 114.332885,22.520875 C114.332885,21.908375 113.821488,21.399625 113.208563,21.399625 C113.004255,21.399625 112.5267,21.637125 111.606686,21.637125 C109.834344,21.637125 108.642337,20.854625 108.642337,18.714625 L108.642337,8.327125 L113.242405,8.327125 C113.882905,8.327125 114.401823,7.809625 114.401823,7.170875" id="Fill-20" fill="#929497"></path>
                    <path d="M100.595351,22.555 C100.595351,23.3025 100.016268,23.88 99.300563,23.88 C98.5510151,23.88 97.9706795,23.3025 97.9706795,22.555 L97.9706795,20.67 C96.5392685,22.7775 94.4610904,24.08375 91.2234945,24.08375 C86.9982,24.08375 82.8054945,20.75375 82.8054945,14.97625 L82.8054945,14.9075 C82.8054945,9.165 86.9982,5.76625 91.2234945,5.76625 C94.4949329,5.76625 96.6082068,7.03875 97.9706795,9.01 L97.9706795,1.32625 C97.9706795,0.57875 98.5159192,0 99.2667205,0 C100.016268,0 100.595351,0.57875 100.595351,1.32625 L100.595351,22.555 Z M85.4991041,14.87375 L85.4991041,14.9425 C85.4991041,19.08875 88.3945151,21.74 91.7010493,21.74 C94.9724877,21.74 98.0734603,18.98625 98.0734603,14.9425 L98.0734603,14.87375 C98.0734603,10.83 94.9724877,8.11125 91.7010493,8.11125 C88.2917342,8.11125 85.4991041,10.62625 85.4991041,14.87375 L85.4991041,14.87375 Z" id="Fill-10" fill="#929497"></path>
                    <path d="M75.7905781,7.0785 C75.7905781,6.36475 76.3696603,5.7535 77.0853658,5.7535 C77.8349137,5.7535 78.4152493,6.331 78.4152493,7.0785 L78.4152493,22.55475 C78.4152493,23.3035 77.8687562,23.87975 77.1192082,23.87975 C76.3696603,23.87975 75.7905781,23.3035 75.7905781,22.55475 L75.7905781,7.0785 Z" id="Fill-8" fill="#929497"></path>
                    <path d="M63.0057719,5.753625 C60.4939089,5.753625 58.2778541,7.013625 56.9529842,8.931125 C55.6356349,7.022375 53.4459021,5.766125 50.942813,5.766125 C46.8854774,5.766125 43.5952377,9.047375 43.5952377,13.093625 L43.5952377,22.554875 C43.5952377,23.302375 44.1730664,23.879875 44.9238678,23.879875 C45.6734158,23.879875 46.2199089,23.302375 46.2199089,22.554875 L46.2174021,12.843625 C46.2174021,10.242375 48.330676,8.136125 50.9390527,8.136125 C53.5449226,8.136125 55.65945,10.242375 55.65945,12.843625 L55.6581966,21.471125 L55.6581966,21.471125 L55.6581966,21.474875 C55.6581966,22.197375 56.2447993,22.783625 56.9705322,22.783625 C57.6950116,22.783625 58.2828678,22.197375 58.2828678,21.474875 L58.2791075,12.831125 C58.2791075,10.231125 60.3936349,8.123625 63.0007582,8.123625 C65.6078815,8.123625 67.7211555,10.231125 67.7211555,12.831125 L67.7211555,22.542375 C67.7211555,23.291125 68.3002377,23.867375 69.0159432,23.867375 C69.7654911,23.867375 70.3458267,23.291125 70.3458267,22.542375 L70.3533473,13.093625 C70.3533473,8.919875 66.8951486,5.753625 63.0057719,5.753625" id="Fill-22" fill="#929497"></path>
                </g>
            </g>
        </g>
    </g>
</svg>